<svg xmlns="http://www.w3.org/2000/svg" viewBox="0 0 512 512" role="img" aria-labelledby="title">
  <title id="title">CareWise AI</title>
  <rect width="512" height="512" rx="96" fill="#0f766e"/>
  <circle cx="256" cy="256" r="176" fill="#e8fff8"/>
  <path d="M256 132c56 0 104 38 118 91 12 45-3 92-39 121-19 16-43 25-79 45-36-20-60-29-79-45-36-29-51-76-39-121 14-53 62-91 118-91z" fill="#14b8a6"/>
  <path d="M256 162c42 0 78 29 88 68 9 34-3 70-30 92-14 12-32 19-58 34-26-15-44-22-58-34-27-22-39-58-30-92 10-39 46-68 88-68z" fill="#ffffff"/>
  <path d="M247 205h18v43h43v18h-43v43h-18v-43h-43v-18h43z" fill="#0f766e"/>
</svg>
